#!OML:ASF X:\für Bonn\!DataBase\2005_08_12_Daniel\c3d\Daniel.ASF
:FULLY-SPECIFIED
:DEGREES
1
root -24.1699 15.777 -0.271284 321.141 81.8182 326.002
lowerback 33.3928 -1.70298 5.99367
upperback 6.12969 0.565116 -0.0428216
thorax -10.2362 0.387194 -3.50882
lowerneck -8.93833 1.22989 -4.28646
upperneck -13.5618 2.25149 -2.59949
head -2.84169 1.62945 -0.122258
rclavicle 1.11319e-014 2.08724e-015
rhumerus -43.9128 6.46063 -97.6634
rradius 50.7782
rwrist -8.31864
rhand -37.7568 24.3073
rfingers 7.12502
rthumb -10.8047 -5.39482
lclavicle 1.11319e-014 2.08724e-015
lhumerus 132.343 178.22 275.826
lradius 62.8382
lwrist 11.3254
lhand -23.886 -15.5931
lfingers 7.12502
lthumb 2.58749 14.3709
rfemur -26.1229 2.94996 28.1001
rtibia 66.3718
rfoot -28.9934 3.93596
rtoes -4.63871
lfemur -33.4408 -1.92289 -11.8434
ltibia 75.8968
lfoot -32.4942 0.288042
ltoes -14.1989
2
root -23.9838 15.6222 -0.286306 321.113 81.6176 326.041
lowerback 33.3988 -1.68714 6.18619
upperback 5.90824 0.643334 -0.0135636
thorax -10.4741 0.39716 -3.6121
lowerneck -8.99208 1.22556 -4.3928
upperneck -14.0706 2.27165 -2.58951
head -3.01095 1.66913 -0.107486
rclavicle 1.47101e-014 -6.16232e-015
rhumerus -42.3312 7.65227 -98.8383
rradius 52.488
rwrist -7.32056
rhand -37.7053 24.6729
rfingers 7.12502
rthumb -10.755 -5.03173
lclavicle 1.47101e-014 -6.16232e-015
lhumerus 134.091 178.743 276.301
lradius 64.6568
lwrist 11.2024
lhand -22.9004 -15.5354
lfingers 7.12502
lthumb 3.53925 14.4149
rfemur -26.1619 2.90283 28.1992
rtibia 68.1279
rfoot -30.5501 4.21382
rtoes -4.73555
lfemur -33.4162 -1.66455 -11.9541
ltibia 77.7994
lfoot -34.4453 0.682383
ltoes -14.7119
3
root -23.8009 15.4948 -0.298558 321.184 81.4595 326.166
lowerback 33.4267 -1.67334 6.31406
upperback 5.65427 0.700657 0.0361163
thorax -10.7607 0.395365 -3.6519
lowerneck -9.12548 1.22057 -4.5646
upperneck -14.469 2.30383 -2.54368
head -3.13115 1.71286 -0.0679316
rclavicle -9.19379e-015 -6.95746e-015
rhumerus -40.3594 9.13496 -99.9133
rradius 54.1695
rwrist -5.97138
rhand -37.7102 25.0543
rfingers 7.12502
rthumb -10.7597 -4.65017
lclavicle -9.19379e-015 -6.95746e-015
lhumerus 136.308 179.458 276.75
lradius 66.5316
lwrist 11.0821
lhand -21.6743 -15.1109
lfingers 7.12502
lthumb 4.72323 14.8165
rfemur -26.0885 2.83736 28.2527
rtibia 69.5845
rfoot -31.6519 4.44476
rtoes -5.05785
lfemur -33.3316 -1.32744 -12.0874
ltibia 79.3644
lfoot -36.0277 1.0949
ltoes -15.5015
4
root -23.6182 15.3932 -0.309524 321.263 81.3271 326.307
lowerback 33.4508 -1.65804 6.43177
upperback 5.38714 0.754371 0.0694117
thorax -11.0618 0.390357 -3.70285
lowerneck -9.31462 1.23366 -4.69032
upperneck -14.7212 2.35776 -2.51953
head -3.19034 1.75932 -0.0405868
rclavicle -9.14409e-015 -1.50082e-014
rhumerus -38.0357 10.8841 -100.888
rradius 56.0155
rwrist -4.51338
rhand -37.6917 25.0898
rfingers 7.12502
rthumb -10.7419 -4.61555
lclavicle -9.14409e-015 -1.50082e-014
lhumerus 139.138 180.652 277.087
lradius 67.9781
lwrist 11.0819
lhand -20.5739 -14.7139
lfingers 7.12502
lthumb 5.7857 15.1871
rfemur -25.8574 2.7716 28.2797
rtibia 70.7568
rfoot -32.569 4.6068
rtoes -5.44016
lfemur -33.079 -0.982182 -12.2081
ltibia 80.5841
lfoot -37.281 1.41325
ltoes -15.9305
5
root -23.4313 15.3209 -0.317614 321.318 81.2142 326.394
lowerback 33.392 -1.64876 6.56635
upperback 5.08749 0.7935 0.0730593
thorax -11.3685 0.374387 -3.78938
lowerneck -9.40927 1.24531 -4.80136
upperneck -14.9237 2.40424 -2.43154
head -3.24935 1.79605 0.00489192
rclavicle 1.44119e-015 1.75924e-014
rhumerus -35.4487 12.7385 -101.757
rradius 57.8787
rwrist -2.93199
rhand -37.7025 25.1296
rfingers 7.12502
rthumb -10.7524 -4.5752
lclavicle 1.44119e-015 1.75924e-014
lhumerus 142.427 182.333 277.21
lradius 69.013
lwrist 11.2291
lhand -19.7533 -14.425
lfingers 7.12502
lthumb 6.57794 15.4529
rfemur -25.5176 2.70228 28.2871
rtibia 71.6719
rfoot -33.2562 4.71683
rtoes -5.99292
lfemur -32.6399 -0.702221 -12.3087
ltibia 81.438
lfoot -38.2756 1.64835
ltoes -16.2224
6
root -23.2375 15.2767 -0.324478 321.277 81.1465 326.383
lowerback 33.1997 -1.64859 6.70521
upperback 4.79684 0.810818 0.0784677
thorax -11.6145 0.349382 -3.86746
lowerneck -9.36854 1.26313 -4.91464
upperneck -15.0841 2.44331 -2.35929
head -3.31706 1.82629 0.0449046
rclavicle 3.97569e-016 1.39149e-015
rhumerus -32.4617 14.7849 -102.41
rradius 59.444
rwrist -1.39523
rhand -37.7299 25.3755
rfingers 7.12502
rthumb -10.7788 -4.32793
lclavicle 3.97569e-016 1.39149e-015
lhumerus 145.901 184.429 277.099
lradius 70.3394
lwrist 11.6374
lhand -19.1106 -13.9895
lfingers 7.12502
lthumb 7.19842 15.868
rfemur -25.0293 2.58097 28.2515
rtibia 72.3293
rfoot -33.7481 4.81608
rtoes -6.57059
lfemur -31.9961 -0.525915 -12.4043
ltibia 81.9305
lfoot -38.9953 1.76853
ltoes -16.2761
7
root -23.0339 15.263 -0.329101 321.397 81.1201 326.528
lowerback 32.8537 -1.63611 6.78843
upperback 4.50661 0.809396 0.087175
thorax -11.8012 0.318378 -3.90475
lowerneck -9.09586 1.31476 -5.04812
upperneck -15.2605 2.50835 -2.26201
head -3.43267 1.86811 0.0939107
rclavicle -8.05078e-015 -1.05356e-014
rhumerus -29.2613 17.0172 -102.831
rradius 60.7921
rwrist -0.109906
rhand -37.7905 25.8877
rfingers 7.12502
rthumb -10.8372 -3.81272
lclavicle -8.05078e-015 -1.05356e-014
lhumerus 149.63 186.573 276.682
lradius 71.8844
lwrist 12.1749
lhand -18.5024 -13.6362
lfingers 7.12502
lthumb 7.78544 16.2005
rfemur -24.3579 2.46513 28.151
rtibia 72.6924
rfoot -34.0565 4.87503
rtoes -7.22791
lfemur -31.0787 -0.36416 -12.5411
ltibia 82.0367
lfoot -39.5541 1.81134
ltoes -16.3001
8
root -22.8185 15.2756 -0.330183 321.385 81.149 326.525
lowerback 32.3443 -1.62707 6.86567
upperback 4.18777 0.784787 0.0979186
thorax -11.9547 0.275393 -3.92765
lowerneck -8.55032 1.36141 -5.22779
upperneck -15.433 2.5428 -2.14236
head -3.59708 1.8934 0.155511
rclavicle -4.67144e-015 -6.4605e-015
rhumerus -26.0459 19.2716 -102.977
rradius 62.0976
rwrist 0.852496
rhand -37.8227 26.6584
rfingers 7.12502
rthumb -10.8682 -3.04041
lclavicle -4.67144e-015 -6.4605e-015
lhumerus 153.403 188.618 276.016
lradius 73.4983
lwrist 12.6908
lhand -17.9554 -13.395
lfingers 7.12502
lthumb 8.31334 16.4214
rfemur -23.5077 2.30311 28.0277
rtibia 72.7289
rfoot -34.1469 4.86589
rtoes -8.09808
lfemur -29.942 -0.213702 -12.6828
ltibia 81.7897
lfoot -39.9211 1.83637
ltoes -16.3862
9
root -22.5874 15.3195 -0.330606 321.443 81.2079 326.586
lowerback 31.6812 -1.61616 6.94395
upperback 3.84427 0.745412 0.0969975
thorax -12.0707 0.224413 -3.95809
lowerneck -7.72292 1.42652 -5.41837
upperneck -15.6049 2.57407 -1.99697
head -3.81465 1.91356 0.224848
rclavicle 8.07563e-015 2.08724e-015
rhumerus -23.2165 21.3374 -102.956
rradius 63.7648
rwrist 1.60472
rhand -37.7293 27.5347
rfingers 7.12502
rthumb -10.7782 -2.16879
lclavicle 8.07563e-015 2.08724e-015
lhumerus 156.566 190.339 275.218
lradius 75.6948
lwrist 13.1298
lhand -17.2714 -13.5143
lfingers 7.12502
lthumb 8.97344 16.2748
rfemur -22.3866 2.12011 27.8394
rtibia 72.3531
rfoot -33.9624 4.9213
rtoes -8.66706
lfemur -28.5563 -0.0723296 -12.8556
ltibia 81.1752
lfoot -40.0988 1.82381
ltoes -16.3378
